<?xml version="1.0" encoding="UTF-8" standalone="no"?>
<svg
   xmlns:dc="http://purl.org/dc/elements/1.1/"
   xmlns:cc="http://creativecommons.org/ns#"
   xmlns:rdf="http://www.w3.org/1999/02/22-rdf-syntax-ns#"
   xmlns:svg="http://www.w3.org/2000/svg"
   xmlns="http://www.w3.org/2000/svg"
   xmlns:sodipodi="http://sodipodi.sourceforge.net/DTD/sodipodi-0.dtd"
   xmlns:inkscape="http://www.inkscape.org/namespaces/inkscape"
   fill="#000000"
   viewBox="0 0 24 24"
   width="100px"
   height="100px"
   version="1.1"
   id="svg4"
   sodipodi:docname="bot.svg"
   inkscape:version="1.0.2-2 (e86c870879, 2021-01-15)">
  <metadata
     id="metadata10">
    <rdf:RDF>
      <cc:Work
         rdf:about="">
        <dc:format>image/svg+xml</dc:format>
        <dc:type
           rdf:resource="http://purl.org/dc/dcmitype/StillImage" />
        <dc:title></dc:title>
      </cc:Work>
    </rdf:RDF>
  </metadata>
  <defs
     id="defs8" />
  <sodipodi:namedview
     pagecolor="#ffffff"
     bordercolor="#666666"
     borderopacity="1"
     objecttolerance="10"
     gridtolerance="10"
     guidetolerance="10"
     inkscape:pageopacity="0"
     inkscape:pageshadow="2"
     inkscape:window-width="1920"
     inkscape:window-height="974"
     id="namedview6"
     showgrid="false"
     inkscape:zoom="7.34"
     inkscape:cx="50"
     inkscape:cy="50"
     inkscape:window-x="-11"
     inkscape:window-y="-11"
     inkscape:window-maximized="1"
     inkscape:current-layer="svg4" />
  <path
     d="M 12 2 A 2 2 0 0 0 10 4 A 2 2 0 0 0 11 5.7304688 L 11 8 L 8 8 C 5.8026661 8 4 9.8026661 4 12 L 4 16 L 2 16 L 2 18 L 4 18 L 4 20 C 4 21.093063 4.9069372 22 6 22 L 18 22 C 19.093063 22 20 21.093063 20 20 L 20 18 L 22 18 L 22 16 L 20 16 L 20 12 C 20 9.8026661 18.197334 8 16 8 L 13 8 L 13 5.7285156 A 2 2 0 0 0 14 4 A 2 2 0 0 0 12 2 z M 8 10 L 11 10 L 13 10 L 16 10 C 17.116666 10 18 10.883334 18 12 L 18 20 L 15 20 L 15 18 L 9 18 L 9 20 L 6 20 L 6 12 C 6 10.883334 6.8833339 10 8 10 z M 9.5 13 A 1.5 1.5 0 0 0 8 14.5 A 1.5 1.5 0 0 0 9.5 16 A 1.5 1.5 0 0 0 11 14.5 A 1.5 1.5 0 0 0 9.5 13 z M 14.5 13 A 1.5 1.5 0 0 0 13 14.5 A 1.5 1.5 0 0 0 14.5 16 A 1.5 1.5 0 0 0 16 14.5 A 1.5 1.5 0 0 0 14.5 13 z"
     id="path2"
     style="fill:#ffffff" />
</svg>
