<?xml version="1.0" encoding="UTF-8" standalone="no"?>
<svg
   xmlns:dc="http://purl.org/dc/elements/1.1/"
   xmlns:cc="http://creativecommons.org/ns#"
   xmlns:rdf="http://www.w3.org/1999/02/22-rdf-syntax-ns#"
   xmlns:svg="http://www.w3.org/2000/svg"
   xmlns="http://www.w3.org/2000/svg"
   xmlns:sodipodi="http://sodipodi.sourceforge.net/DTD/sodipodi-0.dtd"
   xmlns:inkscape="http://www.inkscape.org/namespaces/inkscape"
   fill="#000000"
   viewBox="0 0 64 64"
   width="100px"
   height="100px"
   version="1.1"
   id="svg4"
   sodipodi:docname="content.svg"
   inkscape:version="1.0.2-2 (e86c870879, 2021-01-15)">
  <metadata
     id="metadata10">
    <rdf:RDF>
      <cc:Work
         rdf:about="">
        <dc:format>image/svg+xml</dc:format>
        <dc:type
           rdf:resource="http://purl.org/dc/dcmitype/StillImage" />
        <dc:title></dc:title>
      </cc:Work>
    </rdf:RDF>
  </metadata>
  <defs
     id="defs8" />
  <sodipodi:namedview
     pagecolor="#ffffff"
     bordercolor="#666666"
     borderopacity="1"
     objecttolerance="10"
     gridtolerance="10"
     guidetolerance="10"
     inkscape:pageopacity="0"
     inkscape:pageshadow="2"
     inkscape:window-width="1920"
     inkscape:window-height="974"
     id="namedview6"
     showgrid="false"
     inkscape:zoom="7.34"
     inkscape:cx="50"
     inkscape:cy="50"
     inkscape:window-x="-11"
     inkscape:window-y="-11"
     inkscape:window-maximized="1"
     inkscape:current-layer="svg4" />
  <path
     d="M 15.998047 4 A 1 1 0 0 0 15.292969 4.2929688 L 5.2929688 14.292969 A 0.9993 0.9993 0 0 0 5 15 L 5 59 A 1 1 0 0 0 6 60 L 44 60 A 1 1 0 0 0 45 59 L 45 36.964844 L 58.416016 23.548828 A 2.0089 2.0089 0 0 0 58.414062 20.710938 L 56.996094 19.302734 A 2.001 2.001 0 0 0 54.173828 19.302734 L 45 28.480469 L 45 5 A 1 1 0 0 0 44 4 L 15.998047 4 z M 16.998047 6 L 43 6 L 43 30.480469 L 30.845703 42.640625 L 29.425781 44.050781 A 0.9985 0.9985 0 0 0 29.181641 44.443359 L 27.761719 48.681641 A 1 1 0 0 0 28.710938 50 A 1 1 0 0 0 29.025391 49.949219 L 33.275391 48.539062 A 0.9934 0.9934 0 0 0 33.667969 48.296875 L 43 38.964844 L 43 58 L 7 58 L 6.9980469 16 L 15.998047 16 A 1 1 0 0 0 16.998047 15 L 16.998047 6 z M 14.998047 7.4160156 L 14.998047 14 L 8.4121094 14 L 14.998047 7.4160156 z M 55.585938 20.720703 L 57.001953 22.132812 L 57.003906 22.130859 L 57.710938 22.839844 L 57.001953 22.134766 L 55.537109 23.599609 L 54.123047 22.183594 L 55.585938 20.720703 z M 11.957031 22 A 1 1 0 0 0 11.998047 24 L 37.998047 24 A 1 1 0 0 0 37.998047 22 L 11.998047 22 A 1 1 0 0 0 11.957031 22 z M 52.707031 23.597656 L 54.123047 25.013672 L 34.375 44.759766 L 32.960938 43.34375 L 52.707031 23.597656 z M 11.957031 26 A 1 1 0 0 0 11.998047 28 L 37.998047 28 A 1 1 0 0 0 37.998047 26 L 11.998047 26 A 1 1 0 0 0 11.957031 26 z M 11.957031 30 A 1 1 0 0 0 11.998047 32 L 37.998047 32 A 1 1 0 0 0 37.998047 30 L 11.998047 30 A 1 1 0 0 0 11.957031 30 z M 31.544922 44.759766 L 32.960938 46.173828 L 32.419922 46.714844 L 30.292969 47.421875 L 31.001953 45.302734 L 31.544922 44.759766 z M 11.957031 48 A 1 1 0 0 0 11.998047 50 L 23.998047 50 A 1 1 0 0 0 23.998047 48 L 11.998047 48 A 1 1 0 0 0 11.957031 48 z"
     id="path2"
     style="fill:#ffffff" />
</svg>
