<?xml version="1.0" encoding="UTF-8"?>
<svg viewBox="0 0 1380 955.69" xmlns="http://www.w3.org/2000/svg">
 <g stroke="#877c7c" stroke-linecap="round" stroke-width="3.543">
  <g fill="#ff7f00">
   <path d="m193.36 225.58l-64.416-0.2399-32-55.906 32.416-55.666 64.416 0.24 32 55.906-32.416 55.666z"/>
   <path d="m289.36 281.58l-64.416-0.24-32-55.906 32.416-55.666 64.416 0.24 32 55.906-32.416 55.666z"/>
   <path d="m289.77 169.82l-64.416-0.2399-32-55.906 32.416-55.666 64.416 0.24 32 55.906-32.416 55.666z"/>
   <path d="m385.77 225.82l-64.416-0.2399-32-55.906 32.416-55.666 64.416 0.24 32 55.906-32.416 55.666z"/>
  </g>
  <path d="m289.77 393.92l-64.416-0.24-32-55.906 32.416-55.666 64.416 0.24 32 55.906-32.416 55.666z" fill="#ff9000"/>
  <path d="m385.77 449.92l-64.416-0.24-32-55.906 32.416-55.666 64.416 0.24 32 55.906-32.416 55.666z" fill="#ff8c00"/>
  <path d="m386.19 338.16l-64.416-0.2399-32-55.906 32.416-55.666 64.416 0.2399 32 55.906-32.416 55.666z" fill="#ff7f00"/>
  <path d="m482.19 394.16l-64.416-0.2399-32-55.906 32.416-55.666 64.416 0.2399 32 55.906-32.416 55.666z" fill="#ff8c00"/>
  <path d="m480.94 281.25l-64.416-0.24-32-55.906 32.416-55.666 64.416 0.2399 32 55.906-32.416 55.666z" fill="#ff7f00"/>
  <g fill="#ff9000">
   <path d="m576.94 337.25l-64.416-0.2399-32-55.906 32.416-55.666 64.416 0.24 32 55.906-32.416 55.666z"/>
   <path d="m577.36 225.49l-64.416-0.2399-32-55.906 32.416-55.666 64.416 0.24 32 55.906-32.416 55.666z"/>
  </g>
  <path d="m673.36 281.49l-64.416-0.24-32-55.906 32.416-55.666 64.416 0.2399 32 55.906-32.416 55.666z" fill="#ff8c00"/>
  <path d="m577.36 449.58l-64.416-0.2399-32-55.906 32.416-55.666 64.416 0.24 32 55.906-32.416 55.666z" fill="#ffa100"/>
  <g fill="#ff9000">
   <path d="m673.36 505.58l-64.416-0.2399-32-55.906 32.416-55.666 64.416 0.24 32 55.906-32.416 55.666z"/>
   <path d="m673.77 393.82l-64.416-0.2399-32-55.906 32.416-55.666 64.416 0.24 32 55.906-32.416 55.666z"/>
  </g>
  <path d="m769.77 449.82l-64.416-0.2399-32-55.906 32.416-55.666 64.416 0.24 32 55.906-32.416 55.666z" fill="#fa0"/>
  <path d="m385.77 561.92l-64.416-0.2399-32-55.906 32.416-55.666 64.416 0.24 32 55.906-32.416 55.666z" fill="#ff9000"/>
  <path d="m481.77 617.92l-64.416-0.2399-32-55.906 32.416-55.666 64.416 0.24 32 55.906-32.416 55.666z" fill="#ffa100"/>
  <g fill="#ff9d00">
   <path d="m482.19 506.16l-64.416-0.24-32-55.906 32.416-55.666 64.416 0.24 32 55.906-32.416 55.666z"/>
   <path d="m578.19 562.16l-64.416-0.2399-32-55.906 32.416-55.666 64.416 0.24 32 55.906-32.416 55.666z"/>
  </g>
  <path d="m482.19 730.25l-64.416-0.2399-32-55.906 32.416-55.666 64.416 0.24 32 55.906-32.416 55.666z" fill="#ffa100"/>
  <g fill="#f90">
   <path d="m578.19 786.25l-64.416-0.2399-32-55.906 32.416-55.666 64.416 0.24 32 55.906-32.416 55.666z"/>
   <path d="m578.6 674.49l-64.416-0.2399-32-55.906 32.416-55.666 64.416 0.2399 32 55.906-32.416 55.666z"/>
   <path d="m674.6 730.49l-64.416-0.2399-32-55.906 32.416-55.666 64.416 0.2399 32 55.906-32.416 55.666z"/>
  </g>
  <path d="m673.36 617.58l-64.416-0.2399-32-55.906 32.416-55.666 64.416 0.24 32 55.906-32.416 55.666z" fill="#ff9d00"/>
  <path d="m769.36 673.58l-64.416-0.2399-32-55.906 32.416-55.666 64.416 0.2399 32 55.906-32.416 55.666z" fill="#ffae00"/>
  <g fill="#f90">
   <path d="m769.77 561.82l-64.416-0.2399-32-55.906 32.416-55.666 64.416 0.24 32 55.906-32.416 55.666z"/>
   <path d="m865.77 617.82l-64.416-0.2399-32-55.906 32.416-55.666 64.416 0.24 32 55.906-32.416 55.666z"/>
  </g>
  <path d="m769.77 785.92l-64.416-0.2399-32-55.906 32.416-55.666 64.416 0.24 32 55.906-32.416 55.666z" fill="#fa0"/>
  <path d="m865.77 841.92l-64.416-0.2399-32-55.906 32.416-55.666 64.416 0.24 32 55.906-32.416 55.666z" fill="#ffb600"/>
  <path d="m866.19 730.16l-64.416-0.2399-32-55.906 32.416-55.666 64.416 0.2399 32 55.906-32.416 55.666z" fill="#f90"/>
  <path d="m962.19 786.16l-64.416-0.2399-32-55.906 32.416-55.666 64.416 0.2399 32 55.906-32.416 55.666z" fill="#ffbf00"/>
  <path d="m864.52 505.1l-64.416-0.2399-32-55.906 32.416-55.666 64.416 0.24 32 55.906-32.416 55.666z" fill="#ff9d00"/>
  <path d="m960.52 561.1l-64.416-0.2399-32-55.906 32.416-55.666 64.416 0.24 32 55.906-32.416 55.666z" fill="#ffa100"/>
  <path d="m960.94 449.34l-64.416-0.24-32-55.906 32.416-55.666 64.416 0.2399 32 55.906-32.416 55.666z" fill="#ff9000"/>
  <path d="m1056.9 505.34l-64.416-0.2399-32-55.906 32.416-55.666 64.416 0.24 32 55.906-32.416 55.666z" fill="#fa0"/>
  <path d="m960.94 673.44l-64.416-0.2399-32-55.906 32.416-55.666 64.416 0.2399 32 55.906-32.416 55.666z" fill="#ffae00"/>
  <path d="m1056.9 729.44l-64.416-0.2399-32-55.906 32.416-55.666 64.416 0.24 32 55.906-32.416 55.666z" fill="#fb0"/>
  <path d="m1057.4 617.68l-64.416-0.2399-32-55.906 32.416-55.666 64.416 0.24 32 55.906-32.416 55.666z" fill="#ffb600"/>
  <g fill="#fb0">
   <path d="m1153.4 673.68l-64.416-0.2399-32-55.906 32.416-55.666 64.416 0.24 32 55.906-32.416 55.666z"/>
   <path d="m1153.4 561.68l-64.416-0.2399-32-55.906 32.416-55.666 64.416 0.24 32 55.906-32.416 55.666z"/>
  </g>
  <path d="m1249.4 617.68l-64.416-0.24-32-55.906 32.416-55.666 64.416 0.24 32 55.906-32.416 55.666z" fill="#ffd800"/>
  <path d="m1249.8 505.92l-64.416-0.24-32-55.906 32.416-55.666 64.416 0.24 32 55.906-32.416 55.666z" fill="#fc0"/>
  <path d="m1345.8 561.92l-64.416-0.2399-32-55.906 32.416-55.666 64.416 0.24 32 55.906-32.416 55.666z" fill="#ffe100"/>
  <path d="m769.36 337.68l-64.416-0.24-32-55.906 32.416-55.666 64.416 0.2399 32 55.906-32.416 55.666z" fill="#ff8c00"/>
  <path d="m865.36 393.68l-64.416-0.24-32-55.906 32.416-55.666 64.416 0.24 32 55.906-32.416 55.666z" fill="#ffa100"/>
  <g fill="#f90">
   <path d="m865.77 281.92l-64.416-0.2399-32-55.906 32.416-55.666 64.416 0.24 32 55.906-32.416 55.666z"/>
   <path d="m961.77 337.92l-64.416-0.2399-32-55.906 32.416-55.666 64.416 0.24 32 55.906-32.416 55.666z"/>
  </g>
  <path d="m1060 283.35l-64.416-0.24-32-55.906 32.416-55.666 64.416 0.2399 32 55.906-32.416 55.666z" fill="#ff9d00"/>
  <g fill="#ff8c00">
   <path d="m672.94 169.34l-64.416-0.24-32-55.906 32.416-55.665 64.415 0.24 32 55.905-32.415 55.666z"/>
   <path d="m768.94 225.34l-64.416-0.2399-32-55.906 32.416-55.666 64.416 0.24 32 55.906-32.416 55.666z"/>
  </g>
  <path d="m769.36 113.58l-64.416-0.2399-32-55.906 32.416-55.666 64.416 0.24 32 55.906-32.416 55.666z" fill="#ff9000"/>
  <path d="m865.36 169.58l-64.416-0.2399-32-55.906 32.416-55.666 64.416 0.24 32 55.906-32.416 55.666z" fill="#f90"/>
  <path d="m193.77 673.82l-64.416-0.2399-32-55.906 32.416-55.666 64.416 0.2399 32 55.906-32.416 55.666z" fill="#ff9000"/>
  <path d="m289.77 729.82l-64.416-0.2399-32-55.906 32.416-55.666 64.416 0.2399 32 55.906-32.416 55.666z" fill="#ff7f00"/>
  <g fill="#f90">
   <path d="m290.19 618.06l-64.416-0.2399-32-55.906 32.416-55.666 64.416 0.24 32 55.906-32.416 55.666z"/>
   <path d="m386.19 674.06l-64.416-0.2399-32-55.906 32.416-55.666 64.416 0.2399 32 55.906-32.416 55.666z"/>
  </g>
  <path d="m98.187 506.25l-64.416-0.2399-32-55.906 32.416-55.666 64.416 0.24 32 55.906-32.416 55.666z" fill="#ff7f00"/>
  <path d="m194.19 562.25l-64.416-0.2399-32-55.906 32.416-55.666 64.416 0.24 32 55.906-32.416 55.666z" fill="#ff9d00"/>
  <path d="m194.6 450.49l-64.416-0.24-32-55.906 32.416-55.666 64.416 0.24 32 55.906-32.416 55.666z" fill="#ff7f00"/>
  <path d="m290.6 506.49l-64.416-0.24-32-55.906 32.416-55.666 64.416 0.24 32 55.906-32.416 55.666z" fill="#ff9d00"/>
  <g fill="#ff7f00">
   <path d="m290.19 842.16l-64.416-0.2399-32-55.906 32.416-55.666 64.416 0.2399 32 55.906-32.416 55.666z"/>
   <path d="m386.19 898.16l-64.416-0.2399-32-55.906 32.416-55.666 64.416 0.2399 32 55.906-32.416 55.666z"/>
  </g>
  <path d="m386.6 786.4l-64.416-0.2399-32-55.906 32.416-55.666 64.416 0.2399 32 55.906-32.416 55.666z" fill="#f90"/>
  <path d="m482.6 842.4l-64.416-0.2399-32-55.906 32.416-55.666 64.416 0.2399 32 55.906-32.416 55.666z" fill="#ff9000"/>
  <path d="m961.77 897.92l-64.416-0.2399-32-55.906 32.416-55.666 64.416 0.24 32 55.906-32.416 55.666z" fill="#fc0"/>
  <path d="m1057.8 953.92l-64.416-0.2399-32-55.906 32.416-55.666 64.416 0.24 32 55.906-32.416 55.666z" fill="#ffd800"/>
  <path d="m1058.2 842.16l-64.416-0.2399-32-55.906 32.416-55.666 64.416 0.2399 32 55.906-32.416 55.666z" fill="#ffd400"/>
  <path d="m1154.2 898.16l-64.416-0.2399-32-55.906 32.416-55.666 64.416 0.2399 32 55.906-32.416 55.666z" fill="#ffe900"/>
  <path d="m577.77 897.82l-64.416-0.2399-32-55.906 32.416-55.666 64.416 0.2399 32 55.906-32.416 55.666z" fill="#f90"/>
  <path d="m673.77 953.82l-64.416-0.2399-32-55.906 32.416-55.666 64.416 0.2399 32 55.906-32.416 55.666z" fill="#ffae00"/>
  <path d="m674.19 842.06l-64.416-0.2399-32-55.906 32.416-55.666 64.416 0.2399 32 55.906-32.416 55.666z" fill="#ffb600"/>
  <path d="m770.19 898.06l-64.416-0.2399-32-55.906 32.416-55.666 64.416 0.2399 32 55.906-32.416 55.666z" fill="#fa0"/>
  <g fill="#ff7f00">
   <path d="m193.71 785.63l-64.416-0.2399-32-55.906 32.416-55.666 64.416 0.2399 32 55.906-32.416 55.666z"/>
   <path d="m193.71 898.13l-64.416-0.2399-32-55.906 32.416-55.666 64.416 0.2399 32 55.906-32.416 55.666z"/>
   <path d="m97.874 727.3l-64.416-0.2399-32-55.906 32.416-55.666 64.416 0.2399 32 55.906-32.416 55.666z"/>
   <path d="m97.874 839.8l-64.416-0.2399-32-55.906 32.416-55.666 64.416 0.2399 32 55.906-32.416 55.666z"/>
  </g>
 </g>
</svg>
