<svg fill="#000000" xmlns="http://www.w3.org/2000/svg"  viewBox="0 0 512 512" width="256px" height="256px"><path d="M 191.98047 68.099609 A 8 8 0 0 0 190.43164 83.958984 L 190.43164 83.957031 L 198.08594 85.488281 A 43.888 43.888 0 0 1 230.61914 112.92578 A 8 8 0 0 0 231.85547 115.07422 A 32.132 32.132 0 0 0 227.62695 121.24414 A 14.992 14.992 0 1 1 217.55078 149.00781 A 40.041 40.041 0 0 0 216 160 C 216 161.345 216.07308 162.67986 216.20508 164.00586 A 71.873 71.873 0 0 1 295.79297 164.03711 C 295.92597 162.70211 296 161.356 296 160 A 40.052 40.052 0 0 0 294.67969 149.87891 A 15 15 0 1 1 284.58789 121.66211 A 32.091 32.091 0 0 0 280.42578 115.40234 A 7.945 7.945 0 0 0 280.78516 114.57031 A 44.242 44.242 0 0 1 313.91211 85.488281 L 321.56836 83.957031 A 8 8 0 1 0 318.43164 68.269531 L 310.77539 69.798828 A 60.309 60.309 0 0 0 266.94336 105.94336 A 31.816 31.816 0 0 0 245.05469 105.94336 A 59.8 59.8 0 0 0 201.22461 69.800781 L 193.56836 68.269531 A 8 8 0 0 0 191.98047 68.099609 z M 59.607422 115.72852 A 25.594 25.594 0 0 0 50.074219 117.5918 L 106.5293 136.41016 A 7.994 7.994 0 0 1 111.1543 140.42188 L 117.67383 153.45703 L 194.30664 179 L 186.09961 172.16016 A 257.342 257.342 0 0 0 63.78125 116.07422 A 25.312 25.312 0 0 0 59.607422 115.72852 z M 451.96484 115.73438 A 25.491 25.491 0 0 0 448.22266 116.07031 A 257.342 257.342 0 0 0 325.90039 172.16211 L 317.69336 179 L 394.32617 153.45508 L 400.8457 140.41992 A 7.994 7.994 0 0 1 405.4707 136.4082 L 461.92383 117.58984 A 25.491 25.491 0 0 0 451.96484 115.73438 z M 36.634766 129.97852 C 36.559766 130.12952 36.475344 130.27773 36.402344 130.42773 A 25.644 25.644 0 0 0 34.644531 147.11523 L 93.839844 166.84766 L 102.26562 158.41992 L 98.326172 150.54297 L 36.634766 129.97852 z M 475.36523 129.97852 L 413.67578 150.54297 L 409.73633 158.41992 L 418.16211 166.84766 L 477.35742 147.11523 A 25.646 25.646 0 0 0 475.59961 130.42773 C 475.52661 130.27373 475.44023 130.12752 475.36523 129.97852 z M 43.699219 167 A 59 59 0 0 0 91.921875 192 L 182.69922 192 L 114.16016 169.15234 L 101.66016 181.65234 A 8 8 0 0 1 93.474609 183.58594 L 43.699219 167 z M 468.30664 167 L 418.5293 183.58984 A 7.971 7.971 0 0 1 416 184 A 8 8 0 0 1 410.3418 181.65625 L 397.8418 169.15625 L 329.30078 192 L 420.08594 192 A 59 59 0 0 0 468.30664 167 z M 254.74609 168.01172 A 55.945 55.945 0 0 0 220.92773 180.35742 L 237.08594 193.82227 A 8 8 0 0 1 237 206.24609 L 212.88281 225.54102 A 95.313 95.313 0 0 1 200.85352 233.72266 A 56 56 0 0 0 311.1543 233.72266 A 95.164 95.164 0 0 1 299.12305 225.53906 L 275 206.24609 A 8 8 0 0 1 273.75391 195 A 8.114 8.114 0 0 1 274.91211 193.82422 L 291.07227 180.35742 A 55.945 55.945 0 0 0 254.74609 168.01172 z M 97.648438 208 A 79.309 79.309 0 0 0 129.72656 227.03125 L 144 208 L 97.648438 208 z M 164 208 L 147.27148 230.30664 A 79.852 79.852 0 0 0 202.88672 213.04688 L 209.19336 208 L 164 208 z M 302.80664 208 L 309.11523 213.04688 A 79.838 79.838 0 0 0 364.72852 230.30469 L 348 208 L 302.80664 208 z M 368 208 L 382.27344 227.03125 A 79.331 79.331 0 0 0 414.35352 208 L 368 208 z M 256.23438 216.00391 A 8 8 0 0 1 264 224 L 264 232 A 8 8 0 0 1 248 232 L 248 224 A 8 8 0 0 1 256.23438 216.00391 z M 224.23438 224.00391 A 8 8 0 0 1 232 232 L 232 240 A 8 8 0 0 1 216 240 L 216 232 A 8 8 0 0 1 224.23438 224.00391 z M 288.23438 224.00391 A 8 8 0 0 1 296 232 L 296 240 A 8 8 0 0 1 280 240 L 280 232 A 8 8 0 0 1 288.23438 224.00391 z M 290.61719 287.13477 A 71.8 71.8 0 0 1 256 296 A 72.043 72.043 0 0 1 221.32617 287.17383 A 59.974 59.974 0 0 0 200.28125 312 L 311.71875 312 A 59.981 59.981 0 0 0 290.61719 287.13477 z M 195.52344 328 C 195.49844 328.164 195.46345 328.32428 195.43945 328.48828 A 60.048 60.048 0 0 0 195.25586 344 L 316.74414 344 A 60.048 60.048 0 0 0 316.56055 328.48828 C 316.53655 328.32428 316.50056 328.164 316.47656 328 L 195.52344 328 z M 199.42383 360 A 59.932 59.932 0 0 0 203.97656 368.86914 L 208.43359 376 L 303.56641 376 L 308.02344 368.86719 A 59.971 59.971 0 0 0 312.57617 360 L 199.42383 360 z M 219.44531 392 A 49.249 49.249 0 0 0 242.45312 406.13477 L 256 440 L 269.54883 406.13086 A 49.267 49.267 0 0 0 292.55469 392 L 219.44531 392 z"/></svg>