<?xml version="1.0" encoding="UTF-8" standalone="no"?>
<svg
   xmlns:dc="http://purl.org/dc/elements/1.1/"
   xmlns:cc="http://creativecommons.org/ns#"
   xmlns:rdf="http://www.w3.org/1999/02/22-rdf-syntax-ns#"
   xmlns:svg="http://www.w3.org/2000/svg"
   xmlns="http://www.w3.org/2000/svg"
   xmlns:sodipodi="http://sodipodi.sourceforge.net/DTD/sodipodi-0.dtd"
   xmlns:inkscape="http://www.inkscape.org/namespaces/inkscape"
   fill="#000000"
   viewBox="0 0 512 512"
   width="100px"
   height="100px"
   version="1.1"
   id="svg4"
   sodipodi:docname="token.svg"
   inkscape:version="1.0.2-2 (e86c870879, 2021-01-15)">
  <metadata
     id="metadata10">
    <rdf:RDF>
      <cc:Work
         rdf:about="">
        <dc:format>image/svg+xml</dc:format>
        <dc:type
           rdf:resource="http://purl.org/dc/dcmitype/StillImage" />
        <dc:title></dc:title>
      </cc:Work>
    </rdf:RDF>
  </metadata>
  <defs
     id="defs8" />
  <sodipodi:namedview
     pagecolor="#ffffff"
     bordercolor="#666666"
     borderopacity="1"
     objecttolerance="10"
     gridtolerance="10"
     guidetolerance="10"
     inkscape:pageopacity="0"
     inkscape:pageshadow="2"
     inkscape:window-width="1920"
     inkscape:window-height="974"
     id="namedview6"
     showgrid="false"
     inkscape:zoom="7.34"
     inkscape:cx="50"
     inkscape:cy="50"
     inkscape:window-x="-11"
     inkscape:window-y="-11"
     inkscape:window-maximized="1"
     inkscape:current-layer="svg4" />
  <path
     d="M 288 16 A 176.031 176.031 0 0 0 114.56055 161.98047 C 56.236077 190.6795 16 250.72534 16 320 C 16 417.04688 94.95312 496 192 496 L 224 496 C 310.79663 496 383.11035 432.84125 397.41992 350.07031 A 175.924 175.924 0 0 0 496 192 C 496 94.95312 417.04688 16 320 16 L 288 16 z M 288 32 A 159.08569 159.08569 0 0 1 351.52148 45.164062 L 338.34375 58.34375 A 8.00035 8.00035 0 0 0 336 64 L 336 73.376953 A 24 24 0 1 0 352 73.376953 L 352 67.314453 L 366.62109 52.693359 A 161.20844 161.20844 0 0 1 421.55664 104 L 400 104 A 8.00076 8.00076 0 0 0 394.3418 106.34375 L 346.3418 154.34375 L 357.6582 165.65625 L 403.31445 120 L 430.85742 120 A 159.01474 159.01474 0 0 1 448 192 A 162.03453 162.03453 0 0 1 446.20703 216 L 435.31445 216 L 413.6543 194.33984 A 24.00928 24.00928 0 1 0 402.3418 205.6543 L 426.34375 229.65625 A 8.00076 8.00076 0 0 0 432 232 L 442.97656 232 A 158.80733 158.80733 0 0 1 399.50391 306.74805 C 392.70606 215.86774 316.58887 144 224 144 L 192 144 A 175.18835 175.18835 0 0 0 132.45898 154.375 A 159.76171 159.76171 0 0 1 162.03711 93.351562 L 176 107.31445 L 176 128 L 192 128 L 192 104 A 8.00035 8.00035 0 0 0 189.6582 98.34375 L 172.54492 81.232422 C 175.78906 77.851135 179.18929 74.603861 182.74414 71.492188 C 185.74316 68.870668 188.82845 66.374333 192 64.001953 L 192 72 A 8.00035 8.00035 0 0 0 194.3418 77.65625 L 210.3457 93.660156 A 24.00944 24.00944 0 1 0 221.66016 82.345703 L 208 68.685547 L 208 53.433594 A 159.89043 159.89043 0 0 1 272 32.810547 L 272 104 A 8.00035 8.00035 0 0 0 274.3418 109.65625 L 322.3418 157.65625 L 333.6582 146.34375 L 288 100.68555 L 288 32 z M 387.72461 47.0625 A 160.90447 160.90447 0 0 1 441.48633 88 L 429.89258 88 A 177.46416 177.46416 0 0 0 387.72461 47.0625 z M 343.90039 88 A 8 8 0 0 1 344 88 A 8.00917 8.00917 0 0 1 352 96 A 8 8 0 1 1 343.90039 88 z M 232 96 A 8 8 0 1 1 224 104 A 8.00917 8.00917 0 0 1 232 96 z M 440.37305 104 L 453.55664 104 A 159.61655 159.61655 0 0 1 469.87891 136 L 454.86328 136 A 175.178 175.178 0 0 0 440.37305 104 z M 459.41211 152 L 474.9375 152 A 159.34 159.34 0 0 1 479.79883 184 L 463.81055 184 A 175.44262 175.44262 0 0 0 459.41211 152 z M 291.69922 175.04492 A 160.94261 160.94261 0 0 1 345.48633 216 L 333.89258 216 A 177.45944 177.45944 0 0 0 291.69922 175.04492 z M 192 176 C 271.40234 176 336 240.59814 336 320 C 336 399.40186 271.40234 464 192 464 C 112.59766 464 48 399.40186 48 320 C 48 240.59814 112.59766 176 192 176 z M 391.66797 176.00781 A 8 8 0 0 1 400 184 A 8.00917 8.00917 0 0 1 392 192 A 8 8 0 0 1 391.66797 176.00781 z M 192 192 A 128 128 0 1 0 320 320 A 128.14509 128.14509 0 0 0 192 192 z M 463.80469 200 L 479.77734 200 A 160.10409 160.10409 0 0 1 474.94922 232 L 459.45312 232 A 176.941 176.941 0 0 0 463.80469 200 z M 186.7793 208.12695 A 112.03707 112.03707 0 0 1 217.83984 210.99609 L 214.16016 226.56836 A 96.01643 96.01643 0 0 0 130.6582 393.84961 L 120.42773 406.15234 A 112.03707 112.03707 0 0 1 186.7793 208.12695 z M 344.37305 232 L 357.55664 232 A 159.61655 159.61655 0 0 1 373.87891 264 L 358.86328 264 A 175.178 175.178 0 0 0 344.37305 232 z M 269.53906 239.18164 A 111.99962 111.99962 0 0 1 192 432 A 111.33527 111.33527 0 0 1 148.92188 423.41406 L 155.07812 408.64648 A 96.01517 96.01517 0 0 0 258.46094 250.72656 L 269.53906 239.18164 z M 190.08203 240.00977 A 80.01008 80.01008 0 0 1 245.33594 379.62891 L 234.66406 367.70508 A 64.10183 64.10183 0 0 0 256 320 A 64.063 64.063 0 0 0 177.77148 257.58594 L 174.23047 241.98242 A 80.01008 80.01008 0 0 1 190.08203 240.00977 z M 454.92773 248 L 469.91992 248 A 159.17038 159.17038 0 0 1 454.46094 278.75586 C 454.18945 279.17596 453.90039 279.58276 453.625 280 L 440.51172 280 A 174.14076 174.14076 0 0 0 454.92773 248 z M 141.70898 257.78125 L 151.77344 270.21875 A 64.00237 64.00237 0 0 0 192 384 L 192 400 A 80.09041 80.09041 0 0 1 112 320 A 79.70437 79.70437 0 0 1 141.70898 257.78125 z M 192.85938 272.00781 A 48.00831 48.00831 0 0 1 220.80469 281.60156 L 211.19531 294.39453 A 31.71721 31.71721 0 0 0 192 288 A 32.02084 32.02084 0 0 0 162.66016 332.79688 L 147.99609 339.20312 A 48.00831 48.00831 0 0 1 192.85938 272.00781 z M 363.41211 280 L 378.9375 280 A 159.34 159.34 0 0 1 383.79883 312 L 367.81055 312 A 175.44262 175.44262 0 0 0 363.41211 280 z M 430.05078 296 L 441.58789 296 A 160.20966 160.20966 0 0 1 399.66016 330.77148 C 399.71803 329.81817 399.77197 328.86358 399.81445 327.90625 A 177.20994 177.20994 0 0 0 430.05078 296 z M 224 320 L 240 320 A 48.02008 48.02008 0 0 1 172.79688 364.00195 L 179.20312 349.33984 A 32.02084 32.02084 0 0 0 224 320 z M 367.81055 328 L 383.79883 328 A 159.34 159.34 0 0 1 378.9375 360 L 363.41211 360 A 175.44262 175.44262 0 0 0 367.81055 328 z M 358.86328 376 L 373.87891 376 A 159.61655 159.61655 0 0 1 357.55664 408 L 344.37305 408 A 175.178 175.178 0 0 0 358.86328 376 z M 333.89258 424 L 345.48633 424 A 160.94368 160.94368 0 0 1 291.69922 464.95508 A 177.4551 177.4551 0 0 0 333.89258 424 z"
     id="path2"
     style="fill:#ffffff" />
</svg>
