<?xml version="1.0" encoding="UTF-8" standalone="no"?>
<svg
   xmlns:dc="http://purl.org/dc/elements/1.1/"
   xmlns:cc="http://creativecommons.org/ns#"
   xmlns:rdf="http://www.w3.org/1999/02/22-rdf-syntax-ns#"
   xmlns:svg="http://www.w3.org/2000/svg"
   xmlns="http://www.w3.org/2000/svg"
   xmlns:sodipodi="http://sodipodi.sourceforge.net/DTD/sodipodi-0.dtd"
   xmlns:inkscape="http://www.inkscape.org/namespaces/inkscape"
   fill="#000000"
   viewBox="0 0 30 30"
   width="100px"
   height="100px"
   version="1.1"
   id="svg4"
   sodipodi:docname="translation.svg"
   inkscape:version="1.0.2-2 (e86c870879, 2021-01-15)">
  <metadata
     id="metadata10">
    <rdf:RDF>
      <cc:Work
         rdf:about="">
        <dc:format>image/svg+xml</dc:format>
        <dc:type
           rdf:resource="http://purl.org/dc/dcmitype/StillImage" />
        <dc:title></dc:title>
      </cc:Work>
    </rdf:RDF>
  </metadata>
  <defs
     id="defs8" />
  <sodipodi:namedview
     pagecolor="#ffffff"
     bordercolor="#666666"
     borderopacity="1"
     objecttolerance="10"
     gridtolerance="10"
     guidetolerance="10"
     inkscape:pageopacity="0"
     inkscape:pageshadow="2"
     inkscape:window-width="1920"
     inkscape:window-height="974"
     id="namedview6"
     showgrid="false"
     inkscape:zoom="7.34"
     inkscape:cx="50"
     inkscape:cy="50"
     inkscape:window-x="-11"
     inkscape:window-y="-11"
     inkscape:window-maximized="1"
     inkscape:current-layer="svg4" />
  <path
     d="M 6 4 C 4.9069372 4 4 4.9069372 4 6 L 4 17 C 4 18.093063 4.9069372 19 6 19 L 11 19 L 11 24 C 11 25.105 11.895 26 13 26 L 24 26 C 25.105 26 26 25.105 26 24 L 26 13 C 26 11.895 25.105 11 24 11 L 19 11 L 19 6 C 19 4.9069372 18.093063 4 17 4 L 6 4 z M 6 6 L 17 6 L 17 12 L 12 17 L 6 17 L 6 6 z M 11 7.5 L 11 9 L 8 9 L 8 10 L 13 10 C 13 11.54899 12.563585 12.478941 11.759766 13.089844 C 11.53998 13.25688 11.278088 13.396887 10.990234 13.517578 C 10.667359 13.357894 10.364092 13.177141 10.109375 12.962891 C 9.3922951 12.359732 9 11.591752 9 11 L 8 11 C 8 11.997248 8.5736736 12.978924 9.4648438 13.728516 C 9.5238513 13.778149 9.5962189 13.817683 9.6582031 13.865234 C 9.1567671 13.945359 8.6170728 14 8 14 L 8 15 C 9.1153185 15 10.108117 14.884672 10.957031 14.605469 C 11.57585 14.850013 12.261979 15 13 15 L 13 14 C 12.755293 14 12.521351 13.969766 12.291016 13.933594 C 12.314874 13.916254 12.341774 13.902596 12.365234 13.884766 C 13.436415 13.070668 14 11.75101 14 10 L 15 10 L 15 9 L 12 9 L 12 7.5 L 11 7.5 z M 17.402344 14.976562 L 19.59375 14.976562 L 21.962891 22.023438 L 20.009766 22.023438 L 19.570312 20.474609 L 17.269531 20.474609 L 16.816406 22.023438 L 15.039062 22.023438 L 17.402344 14.976562 z M 18.382812 16.564453 L 17.611328 19.185547 L 19.232422 19.185547 L 18.476562 16.564453 L 18.382812 16.564453 z"
     id="path2"
     style="fill:#ffffff" />
</svg>
